{
	"accessors" :
	[
		{
			"bufferView" : 2,
			"byteOffset" : 0,
			"componentType" : 5126,
			"count" : 1820,
			"max" :
			[
				1,
				1,
				1,
				1
			],
			"min" :
			[
				0.2631747424602509,
				0.5542271137237549,
				0.03994716703891754,
				1
			],
			"name" : "accessor_color_m0-PolyPaper9_-26184",
			"type" : "VEC4"
		},
		{
			"bufferView" : 0,
			"byteOffset" : 0,
			"componentType" : 5123,
			"count" : 2148,
			"max" :
			[
				1819
			],
			"min" :
			[
				0
			],
			"name" : "accessor_indices_0_m0-PolyPaper9_-26184",
			"type" : "SCALAR"
		},
		{
			"bufferView" : 1,
			"byteOffset" : 21840,
			"componentType" : 5126,
			"count" : 1820,
			"max" :
			[
				0.9991304,
				1,
				0.9936909
			],
			"min" :
			[
				-0.9962716,
				-1,
				-0.9936909
			],
			"name" : "accessor_normal_m0-PolyPaper9_-26184",
			"type" : "VEC3"
		},
		{
			"bufferView" : 1,
			"byteOffset" : 0,
			"componentType" : 5126,
			"count" : 1820,
			"max" :
			[
				0.3082701,
				1.180369,
				0.8744662
			],
			"min" :
			[
				0.1196746,
				0.8983887,
				0.6839802
			],
			"name" : "accessor_position_m0-PolyPaper9_-26184",
			"type" : "VEC3"
		}
	],
	"asset" :
	{
		"copyright" : "Unknown",
		"generator" : "glTF 1-to-2 Upgrader for Google Blocks",
		"version" : "2.0"
	},
	"bufferViews" :
	[
		{
			"buffer" : 0,
			"byteLength" : 4296,
			"byteOffset" : 0,
			"name" : "ushortBufferView",
			"target" : 34963
		},
		{
			"buffer" : 0,
			"byteLength" : 43680,
			"byteOffset" : 4296,
			"byteStride" : 12,
			"name" : "vec3BufferView",
			"target" : 34962
		},
		{
			"buffer" : 0,
			"byteLength" : 29120,
			"byteOffset" : 47976,
			"byteStride" : 16,
			"name" : "vec4BufferView",
			"target" : 34962
		}
	],
	"buffers" :
	[
		{
			"byteLength" : 77096,
			"name" : "daisy",
			"uri" : "daisy.bin"
		}
	],
	"materials" :
	[
		{
			"alphaMode" : "OPAQUE",
			"doubleSided" : false,
			"name" : "BlocksPaper",
			"pbrMetallicRoughness" :
			{
				"baseColorFactor" :
				[
					1,
					1,
					1,
					1
				],
				"metallicFactor" : 0,
				"roughnessFactor" : 0.6
			}
		},
		{
			"alphaMode" : "BLEND",
			"doubleSided" : false,
			"name" : "BlocksGlass",
			"pbrMetallicRoughness" :
			{
				"baseColorFactor" :
				[
					0.2,
					0.2,
					1,
					0.3
				],
				"metallicFactor" : 1,
				"roughnessFactor" : 0.4
			}
		},
		{
			"alphaMode" : "OPAQUE",
			"doubleSided" : true,
			"name" : "BlocksGem",
			"pbrMetallicRoughness" :
			{
				"baseColorFactor" :
				[
					1,
					0.4,
					1,
					1
				],
				"metallicFactor" : 0,
				"roughnessFactor" : 0.1
			}
		}
	],
	"meshes" :
	[
		{
			"name" : "mesh_m0-PolyPaper9_-26184",
			"primitives" :
			[
				{
					"attributes" :
					{
						"COLOR_0" : 0,
						"NORMAL" : 2,
						"POSITION" : 3
					},
					"indices" : 1,
					"material" : 0,
					"mode" : 4
				}
			]
		}
	],
	"nodes" :
	[
		{
			"matrix" :
			[
				1,
				0,
				0,
				0,
				0,
				1,
				0,
				0,
				0,
				0,
				1,
				0,
				0,
				0,
				0,
				1
			],
			"mesh" : 0,
			"name" : "node_MeshObject1977485824-PolyPaper9"
		}
	],
	"scene" : 0,
	"scenes" :
	[
		{
			"extras" : {},
			"name" : "defaultScene",
			"nodes" :
			[
				0
			]
		}
	]
}