{
   "accessors" : [
      {
         "bufferView" : 0,
         "byteOffset" : 0,
         "componentType" : 5123,
         "count" : 19596,
         "max" : [ 13003 ],
         "min" : [ 0 ],
         "name" : "buffer-0-group-0-mesh-0-indices",
         "type" : "SCALAR"
      },
      {
         "bufferView" : 2,
         "byteOffset" : 0,
         "componentType" : 5126,
         "count" : 13004,
         "max" : [ 1.847707033157349, 0.7847509980201721, 1.816864967346191 ],
         "min" : [ -1.423123002052307, 0, -1.709566950798035 ],
         "name" : "buffer-0-group-0-mesh-0-position",
         "type" : "VEC3"
      },
      {
         "bufferView" : 2,
         "byteOffset" : 156048,
         "componentType" : 5126,
         "count" : 13004,
         "max" : [ 0.9984999895095825, 0.9925000071525574, 0.9994000196456909 ],
         "min" : [ -0.9997000098228455, -1, -0.9991999864578247 ],
         "name" : "buffer-0-group-0-mesh-0-normal",
         "type" : "VEC3"
      },
      {
         "bufferView" : 0,
         "byteOffset" : 39192,
         "componentType" : 5123,
         "count" : 960,
         "max" : [ 599 ],
         "min" : [ 0 ],
         "name" : "buffer-0-group-1-mesh-0-indices",
         "type" : "SCALAR"
      },
      {
         "bufferView" : 2,
         "byteOffset" : 312096,
         "componentType" : 5126,
         "count" : 600,
         "max" : [ 1.849519014358521, 0.7181829810142517, 1.849519014358521 ],
         "min" : [ -1.849519014358521, 0, -1.849519014358521 ],
         "name" : "buffer-0-group-1-mesh-0-position",
         "type" : "VEC3"
      },
      {
         "bufferView" : 2,
         "byteOffset" : 319296,
         "componentType" : 5126,
         "count" : 600,
         "max" : [ 0.9868000149726868, 1, 0.9868000149726868 ],
         "min" : [ -0.9868000149726868, -0.7423999905586243, -0.9868000149726868 ],
         "name" : "buffer-0-group-1-mesh-0-normal",
         "type" : "VEC3"
      },
      {
         "bufferView" : 0,
         "byteOffset" : 41112,
         "componentType" : 5123,
         "count" : 600,
         "max" : [ 399 ],
         "min" : [ 0 ],
         "name" : "buffer-0-group-2-mesh-0-indices",
         "type" : "SCALAR"
      },
      {
         "bufferView" : 2,
         "byteOffset" : 326496,
         "componentType" : 5126,
         "count" : 400,
         "max" : [ 1.758298993110657, 0.1624249964952469, 1.758298993110657 ],
         "min" : [ -1.758298993110657, -0.4775750041007996, -1.758298993110657 ],
         "name" : "buffer-0-group-2-mesh-0-position",
         "type" : "VEC3"
      },
      {
         "bufferView" : 2,
         "byteOffset" : 331296,
         "componentType" : 5126,
         "count" : 400,
         "max" : [ 0.9876000285148621, 0, 0.9876000285148621 ],
         "min" : [ -0.9876000285148621, -0.9222000241279602, -0.9876000285148621 ],
         "name" : "buffer-0-group-2-mesh-0-normal",
         "type" : "VEC3"
      }
   ],
   "asset" : {
      "generator" : "Obj2GltfConverter",
      "version" : "2.0"
   },
   "bufferViews" : [
      {
         "buffer" : 0,
         "byteLength" : 42312,
         "byteOffset" : 0,
         "byteStride" : 0,
         "name" : "buffer-0-bufferview-ushort",
         "target" : 34963
      },
      {
         "buffer" : 0,
         "byteLength" : 1,
         "byteOffset" : 0,
         "name" : "buffer-0-bufferview-vec2"
      },
      {
         "buffer" : 0,
         "byteLength" : 336096,
         "byteOffset" : 42312,
         "byteStride" : 12,
         "name" : "buffer-0-bufferview-vec3",
         "target" : 34962
      },
      {
         "buffer" : 0,
         "byteLength" : 1,
         "byteOffset" : 0,
         "name" : "buffer-0-bufferview-vec4"
      }
   ],
   "buffers" : [
      {
         "byteLength" : 378408,
         "name" : "buffer-0",
         "uri" : "one.bin"
      }
   ],
   "materials" : [
      {
         "alphaMode" : "OPAQUE",
         "doubleSided" : true,
         "name" : "sprinkle",
         "pbrMetallicRoughness" : {
            "baseColorFactor" : [ 0.041448, 0.260897, 0.64, 1 ],
            "metallicFactor" : 0,
            "roughnessFactor" : 0.2757179515174547
         }
      },
      {
         "alphaMode" : "OPAQUE",
         "doubleSided" : true,
         "name" : "Frosting",
         "pbrMetallicRoughness" : {
            "baseColorFactor" : [ 0.8, 0.222557, 0.398699, 1 ],
            "metallicFactor" : 0,
            "roughnessFactor" : 0.6282386591110933
         }
      },
      {
         "alphaMode" : "OPAQUE",
         "doubleSided" : true,
         "name" : "cake",
         "pbrMetallicRoughness" : {
            "baseColorFactor" : [ 0.64, 0.219074, 0.052763, 1 ],
            "metallicFactor" : 0,
            "roughnessFactor" : 0.7448017359246658
         }
      }
   ],
   "meshes" : [
      {
         "name" : "buffer-0-mesh-0",
         "primitives" : [
            {
               "attributes" : {
                  "NORMAL" : 2,
                  "POSITION" : 1
               },
               "indices" : 0,
               "material" : 0,
               "mode" : 4
            },
            {
               "attributes" : {
                  "NORMAL" : 5,
                  "POSITION" : 4
               },
               "indices" : 3,
               "material" : 1,
               "mode" : 4
            },
            {
               "attributes" : {
                  "NORMAL" : 8,
                  "POSITION" : 7
               },
               "indices" : 6,
               "material" : 2,
               "mode" : 4
            }
         ]
      }
   ],
   "nodes" : [
      {
         "mesh" : 0,
         "name" : "node-0"
      }
   ],
   "scenes" : [
      {
         "name" : "scene-0",
         "nodes" : [ 0 ]
      }
   ]
}
