{
    "asset" : {
        "generator" : "Khronos glTF Blender I/O v0.9.36",
        "version" : "2.0"
    },
    "scene" : 0,
    "scenes" : [
        {
            "name" : "Scene",
            "nodes" : [
                0,
                1,
                2,
                3
            ]
        }
    ],
    "nodes" : [
        {
            "name" : "Light",
            "rotation" : [
                0.16907575726509094,
                0.7558803558349609,
                -0.27217137813568115,
                0.570947527885437
            ],
            "translation" : [
                4.076245307922363,
                5.903861999511719,
                -1.0054539442062378
            ]
        },
        {
            "name" : "Camera",
            "rotation" : [
                0.483536034822464,
                0.33687159419059753,
                -0.20870360732078552,
                0.7804827094078064
            ],
            "translation" : [
                7.358891487121582,
                4.958309173583984,
                6.925790786743164
            ]
        },
        {
            "mesh" : 0,
            "name" : "node_MeshObject-2047913984-PolyPaper21",
            "rotation" : [
                0.7442268133163452,
                0.018024200573563576,
                0.01616569608449936,
                0.6674882769584656
            ]
        },
        {
            "mesh" : 1,
            "name" : "node_MeshObject1102895104-PolyPaper7",
            "rotation" : [
                0.7442268133163452,
                0.018024200573563576,
                0.01616569608449936,
                0.6674882769584656
            ]
        }
    ],
    "materials" : [
        {
            "name" : "BlocksPaper_COLOR_0",
            "pbrMetallicRoughness" : {
                "metallicFactor" : 0,
                "roughnessFactor" : 0.6000000238418579
            }
        }
    ],
    "meshes" : [
        {
            "name" : "mesh_m0-PolyPaper21_-878128",
            "primitives" : [
                {
                    "attributes" : {
                        "POSITION" : 0,
                        "NORMAL" : 1,
                        "COLOR_0" : 2
                    },
                    "indices" : 3,
                    "material" : 0
                }
            ]
        },
        {
            "name" : "mesh_m2-PolyPaper7_-878140",
            "primitives" : [
                {
                    "attributes" : {
                        "POSITION" : 4,
                        "NORMAL" : 5,
                        "COLOR_0" : 6
                    },
                    "indices" : 7,
                    "material" : 0
                }
            ]
        }
    ],
    "accessors" : [
        {
            "bufferView" : 0,
            "componentType" : 5126,
            "count" : 8976,
            "max" : [
                0.2812590003013611,
                0.27846044301986694,
                0.022467702627182007
            ],
            "min" : [
                -0.2838628888130188,
                -0.2935173511505127,
                -0.17664149403572083
            ],
            "type" : "VEC3"
        },
        {
            "bufferView" : 1,
            "componentType" : 5126,
            "count" : 8976,
            "type" : "VEC3"
        },
        {
            "bufferView" : 2,
            "componentType" : 5126,
            "count" : 8976,
            "type" : "VEC4"
        },
        {
            "bufferView" : 3,
            "componentType" : 5123,
            "count" : 8976,
            "type" : "SCALAR"
        },
        {
            "bufferView" : 4,
            "componentType" : 5126,
            "count" : 3036,
            "max" : [
                0.26515281200408936,
                0.15889741480350494,
                -0.10079061985015869
            ],
            "min" : [
                0.07640069723129272,
                -0.20046541094779968,
                -0.15552210807800293
            ],
            "type" : "VEC3"
        },
        {
            "bufferView" : 5,
            "componentType" : 5126,
            "count" : 3036,
            "type" : "VEC3"
        },
        {
            "bufferView" : 6,
            "componentType" : 5126,
            "count" : 3036,
            "type" : "VEC4"
        },
        {
            "bufferView" : 7,
            "componentType" : 5123,
            "count" : 3036,
            "type" : "SCALAR"
        }
    ],
    "bufferViews" : [
        {
            "buffer" : 0,
            "byteLength" : 107712,
            "byteOffset" : 0
        },
        {
            "buffer" : 0,
            "byteLength" : 107712,
            "byteOffset" : 107712
        },
        {
            "buffer" : 0,
            "byteLength" : 143616,
            "byteOffset" : 215424
        },
        {
            "buffer" : 0,
            "byteLength" : 17952,
            "byteOffset" : 359040
        },
        {
            "buffer" : 0,
            "byteLength" : 36432,
            "byteOffset" : 376992
        },
        {
            "buffer" : 0,
            "byteLength" : 36432,
            "byteOffset" : 413424
        },
        {
            "buffer" : 0,
            "byteLength" : 48576,
            "byteOffset" : 449856
        },
        {
            "buffer" : 0,
            "byteLength" : 6072,
            "byteOffset" : 498432
        }
    ],
    "buffers" : [
        {
            "byteLength" : 504504,
            "uri" : "two.bin"
        }
    ]
}
